HIERARCHY
ROOT hip
{
  OFFSET 33.1993 85.263 -57.2252
  CHANNELS 6 Xposition Yposition Zposition Zrotation Xrotation Yrotation
  JOINT abdomen
  {
    OFFSET 0 20.6881 -0.73152
    CHANNELS 3 Zrotation Xrotation Yrotation
    JOINT chest
    {
      OFFSET 0 11.7043 -0.48768
      CHANNELS 3 Zrotation Xrotation Yrotation
      JOINT neck
      {
        OFFSET 0 22.1894 -2.19456
        CHANNELS 3 Zrotation Xrotation Yrotation
        JOINT head
        {
          OFFSET -0.24384 7.07133 1.2192
          CHANNELS 3 Zrotation Xrotation Yrotation
          JOINT leftEye
          {
            OFFSET 4.14528 8.04674 8.04672
            CHANNELS 3 Zrotation Xrotation Yrotation
            End Site
            {
              OFFSET 1 0 0
            }
          }
          JOINT rightEye
          {
            OFFSET -3.6576 8.04674 8.04672
            CHANNELS 3 Zrotation Xrotation Yrotation
            End Site
            {
              OFFSET 1 0 0
            }
          }
        }
      }
      JOINT rCollar
      {
        OFFSET -2.68224 19.2634 -4.8768
        CHANNELS 3 Zrotation Xrotation Yrotation
        JOINT rShldr
        {
          OFFSET -8.77824 -1.95073 1.46304
          CHANNELS 3 Zrotation Xrotation Yrotation
          JOINT rForeArm
          {
            OFFSET -28.1742 -1.7115 0.48768
            CHANNELS 3 Zrotation Xrotation Yrotation
            JOINT rHand
            {
              OFFSET -22.5879 0.773209 7.07136
              CHANNELS 3 Zrotation Xrotation Yrotation
              JOINT rThumb1
              {
                OFFSET -1.2192 -0.487915 3.41376
                CHANNELS 3 Zrotation Xrotation Yrotation
                JOINT rThumb2
                {
                  OFFSET -3.37035 -0.52449 3.41376
                  CHANNELS 3 Zrotation Xrotation Yrotation
                  End Site
                  {
                    OFFSET -1.78271 -1.18214 1.43049
                  }
                }
              }
              JOINT rIndex1
              {
                OFFSET -7.75947 0.938293 5.60832
                CHANNELS 3 Zrotation Xrotation Yrotation
                JOINT rIndex2
                {
                  OFFSET -2.54057 -0.884171 1.56538
                  CHANNELS 3 Zrotation Xrotation Yrotation
                  End Site
                  {
                    OFFSET -1.62519 -0.234802 1.16502
                  }
                }
              }
              JOINT rMid1
              {
                OFFSET -8.24714 1.18213 3.41376
                CHANNELS 3 Zrotation Xrotation Yrotation
                JOINT rMid2
                {
                  OFFSET -3.10165 -0.590103 1.0647
                  CHANNELS 3 Zrotation Xrotation Yrotation
                  End Site
                  {
                    OFFSET -2.48547 -0.328903 0.83742
                  }
                }
              }
              JOINT rRing1
              {
                OFFSET -8.82822 0.546677 1.51678
                CHANNELS 3 Zrotation Xrotation Yrotation
                JOINT rRing2
                {
                  OFFSET -2.60934 -0.819778 -0.0198488
                  CHANNELS 3 Zrotation Xrotation Yrotation
                  End Site
                  {
                    OFFSET -2.33842 -0.294052 0.168128
                  }
                }
              }
              JOINT rPinky1
              {
                OFFSET -8.27202 -0.0477905 -0.4584
                CHANNELS 3 Zrotation Xrotation Yrotation
                JOINT rPinky2
                {
                  OFFSET -1.82734 -0.647385 -0.700984
                  CHANNELS 3 Zrotation Xrotation Yrotation
                  End Site
                  {
                    OFFSET -1.69225 -0.51767 -0.607171
                  }
                }
              }
            }
          }
        }
      }
      JOINT lCollar
      {
        OFFSET 2.68224 19.2634 -4.8768
        CHANNELS 3 Zrotation Xrotation Yrotation
        JOINT lShldr
        {
          OFFSET 8.77824 -1.95073 1.46304
          CHANNELS 3 Zrotation Xrotation Yrotation
          JOINT lForeArm
          {
            OFFSET 28.1742 -1.7115 0.48768
            CHANNELS 3 Zrotation Xrotation Yrotation
            JOINT lHand
            {
              OFFSET 22.5879 0.773209 7.07136
              CHANNELS 3 Zrotation Xrotation Yrotation
              JOINT lThumb1
              {
                OFFSET 1.2192 -0.487915 3.41376
                CHANNELS 3 Zrotation Xrotation Yrotation
                JOINT lThumb2
                {
                  OFFSET 3.37035 -0.52449 3.41376
                  CHANNELS 3 Zrotation Xrotation Yrotation
                  End Site
                  {
                    OFFSET 1.78271 -1.18214 1.43049
                  }
                }
              }
              JOINT lIndex1
              {
                OFFSET 7.75947 0.938293 5.60832
                CHANNELS 3 Zrotation Xrotation Yrotation
                JOINT lIndex2
                {
                  OFFSET 2.54057 -0.884171 1.56538
                  CHANNELS 3 Zrotation Xrotation Yrotation
                  End Site
                  {
                    OFFSET 1.62519 -0.234802 1.16502
                  }
                }
              }
              JOINT lMid1
              {
                OFFSET 8.24714 1.18213 3.41376
                CHANNELS 3 Zrotation Xrotation Yrotation
                JOINT lMid2
                {
                  OFFSET 3.10165 -0.590103 1.0647
                  CHANNELS 3 Zrotation Xrotation Yrotation
                  End Site
                  {
                    OFFSET 2.48547 -0.328903 0.83742
                  }
                }
              }
              JOINT lRing1
              {
                OFFSET 8.82822 0.546677 1.51678
                CHANNELS 3 Zrotation Xrotation Yrotation
                JOINT lRing2
                {
                  OFFSET 2.60934 -0.819778 -0.0198488
                  CHANNELS 3 Zrotation Xrotation Yrotation
                  End Site
                  {
                    OFFSET 2.33842 -0.294052 0.168128
                  }
                }
              }
              JOINT lPinky1
              {
                OFFSET 8.27202 -0.0477905 -0.4584
                CHANNELS 3 Zrotation Xrotation Yrotation
                JOINT lPinky2
                {
                  OFFSET 1.82734 -0.647385 -0.700984
                  CHANNELS 3 Zrotation Xrotation Yrotation
                  End Site
                  {
                    OFFSET 1.69225 -0.51767 -0.607171
                  }
                }
              }
            }
          }
        }
      }
    }
  }
  JOINT rButtock
  {
    OFFSET -8.77824 4.35084 1.2192
    CHANNELS 3 Zrotation Xrotation Yrotation
    JOINT rThigh
    {
      OFFSET 0 -1.70687 -2.19456
      CHANNELS 3 Zrotation Xrotation Yrotation
      JOINT rShin
      {
        OFFSET 0 -36.8199 0.73152
        CHANNELS 3 Zrotation Xrotation Yrotation
        JOINT rFoot
        {
          OFFSET 0.73152 -45.1104 -5.12064
          CHANNELS 3 Zrotation Xrotation Yrotation
          End Site
          {
            OFFSET -1.1221 -3.69964 12.103
          }
        }
      }
    }
  }
  JOINT lButtock
  {
    OFFSET 8.77824 4.35084 1.2192
    CHANNELS 3 Zrotation Xrotation Yrotation
    JOINT lThigh
    {
      OFFSET 0 -1.70687 -2.19456
      CHANNELS 3 Zrotation Xrotation Yrotation
      JOINT lShin
      {
        OFFSET 0 -36.8199 0.73152
        CHANNELS 3 Zrotation Xrotation Yrotation
        JOINT lFoot
        {
          OFFSET -0.73152 -45.1104 -5.12064
          CHANNELS 3 Zrotation Xrotation Yrotation
          End Site
          {
            OFFSET 1.1221 -3.69964 12.103
          }
        }
      }
    }
  }
}
MOTION
Frames:	5
Frame Time:	0.00833333
55.5601 84.1089 -45.4676 1.14321 0.00299706 -0.0214203 -1.50368 -0.00293045 -0.0409974 -0.414511 0.000755723 -0.0717872 -3.41059e-014 1.59028e-015 2.73329e-016 -1.01888e-013 1.59028e-014 8.65024e-016 -0 0 0 -0 0 0 -1.69983e-014 -5.51317e-017 2.48481e-016 -3.55538e-013 -1.36664e-015 2.5842e-015 -6.14359e-012 1.79821e-012 9.85972e-014 -7.03469e-011 -2.0532e-012 4.54819e-013 -1.6593e-010 -5.53602e-013 1.21497e-012 -2.86565e-010 -9.57347e-013 2.08326e-012 -1.65927e-010 -5.54212e-013 1.21179e-012 7.73091 5.47488 0.417314 -1.6593e-010 -5.53913e-013 1.21815e-012 2.90554 0.965183 0.102902 -1.6592e-010 -5.53118e-013 1.20941e-012 10.2786 0.731801 0.0259123 -1.65929e-010 -5.51429e-013 1.21179e-012 2.22167 -0.733487 -0.20892 -1.71938e-014 -5.51317e-017 4.96962e-017 -3.58307e-013 -1.06847e-015 5.96354e-016 -6.15263e-012 -1.87434e-012 1.20861e-013 -7.03444e-011 1.63774e-012 4.29375e-013 -1.65936e-010 -5.13877e-013 1.21179e-012 -2.86553e-010 -8.84194e-013 2.10314e-012 -1.65941e-010 -5.14852e-013 1.21497e-012 -7.73091 5.47488 -0.417314 -1.65934e-010 -5.14455e-013 1.20861e-012 -2.90554 0.965183 -0.102902 -1.65944e-010 -5.1366e-013 1.211e-012 -10.2786 0.731801 -0.0259123 -1.65932e-010 -5.12467e-013 1.20861e-012 -2.22167 -0.733487 0.20892 -2.03217e-016 0 -3.88251e-019 -0.636336 -1.92306 -0.00650409 -0.00920517 -2.07856 -0.0759904 -0.504416 3.99732 0.139168 2.03217e-016 0 3.88251e-019 -1.65038 -6.46948 0.1529 -0.00229135 6.15689 -0.0670344 0.52631 0.308405 -0.0661461 
52.2885 81.5333 -52.9858 -1.43199 1.85706 28.2752 -1.23682 4.07052 0.94349 0.29605 -1.34198 0.235301 -1.40523 -0.354347 2.47469 1.1452 -4.97552 5.51077 -0 0 0 -0 0 0 -3.68647e-014 4.0389e-013 -2.62532e-014 21.2978 13.4851 4.55397 -15.6902 -12.9955 14.7141 0.674463 -18.4131 -2.13156 2.37196e-010 -4.67918e-012 -1.70876e-010 4.16272e-010 6.17492e-012 -2.75655e-010 2.37199e-010 -4.67897e-012 -1.70883e-010 7.73091 5.47488 0.417314 2.37195e-010 -4.67901e-012 -1.70875e-010 2.90554 0.965183 0.102902 2.37205e-010 -4.678e-012 -1.70881e-010 10.2786 0.731801 0.0259123 2.37196e-010 -4.67637e-012 -1.70876e-010 2.22167 -0.733487 -0.20892 -3.70309e-014 4.03888e-013 -2.64667e-014 -23.1981 22.0171 -9.12524 9.16463 -6.03028 -11.7193 -0.0517743 -5.05972 0.701178 -1.51089e-012 6.93821e-010 -3.95872e-010 3.86501e-012 1.2057e-009 -6.83006e-010 -1.51436e-012 6.9382e-010 -3.95868e-010 -7.73091 5.47488 -0.417314 -1.50908e-012 6.9382e-010 -3.95873e-010 -2.90554 0.965183 -0.102902 -1.51875e-012 6.9382e-010 -3.95873e-010 -10.2786 0.731801 -0.0259123 -1.50592e-012 6.93822e-010 -3.95876e-010 -2.22167 -0.733487 0.20892 -2.03217e-016 0 -3.88251e-019 -1.47823 -13.0988 1.49142 -0.00280614 10.7859 0.0960825 -0.686962 -0.705525 -0.90236 2.03217e-016 0 3.88251e-019 3.45765 -13.2427 3.8154 -0.0268604 14.2865 -0.224673 0.70034 -1.68017 1.83899 
52.2346 81.5441 -52.8328 -5.79955 2.27046 58.2315 -1.11465 8.35469 2.01404 1.06845 -2.75861 0.564496 -2.85705 -0.726052 5.08878 3.41213 -10.0771 11.4693 -0 0 0 -0 0 0 -5.77058e-014 8.66691e-013 -6.03343e-014 41.2659 27.4436 10.2551 -24.7521 -23.7206 32.5038 -0.463343 -37.8775 -5.28082 6.75741e-010 -9.81965e-012 -3.61165e-010 1.18105e-009 1.30611e-011 -5.83056e-010 6.75745e-010 -9.8185e-012 -3.61176e-010 7.73091 5.47488 0.417314 6.75739e-010 -9.81893e-012 -3.61166e-010 2.90554 0.965183 0.102902 6.75749e-010 -9.81766e-012 -3.61169e-010 10.2786 0.731801 0.0259123 6.75739e-010 -9.81609e-012 -3.61161e-010 2.22167 -0.733487 -0.20892 -5.78447e-014 8.66687e-013 -6.05641e-014 -37.7494 43.1708 -24.1533 16.1926 -11.5456 -24.4894 0.0305148 -10.4407 1.46573 1.67719e-010 1.41685e-009 -8.15458e-010 3.02985e-010 2.46214e-009 -1.40687e-009 1.67717e-010 1.41684e-009 -8.15454e-010 -7.73091 5.47488 -0.417314 1.67721e-010 1.41684e-009 -8.15458e-010 -2.90554 0.965183 -0.102902 1.67711e-010 1.41684e-009 -8.15459e-010 -10.2786 0.731801 -0.0259123 1.67724e-010 1.41685e-009 -8.15464e-010 -2.22167 -0.733487 0.20892 -2.03217e-016 0 -3.88251e-019 -1.65545 -24.8956 3.31228 -0.0863788 24.3849 0.301304 -1.06765 -5.6723 -2.01814 2.03217e-016 0 3.88251e-019 9.87293 -20.2856 7.98734 -5.28566e-005 22.8781 -0.409668 1.02777 -3.77484 3.85681 
52.1897 81.5518 -52.671 -9.8803 0.5694 84.8513 -1.13104 12.2031 2.97255 1.76044 -4.02705 0.851386 -4.12412 -1.05511 7.4252 6.34019 -14.3667 17.0174 -0 0 0 -0 0 0 -7.65974e-014 1.21178e-012 -7.92565e-014 55.952 39.2782 17.2685 -27.2052 -28.2132 50.693 -4.62667 -54.8146 -10.5693 1.04345e-009 -1.29303e-011 -5.15059e-010 1.82195e-009 2.04395e-011 -8.31132e-010 1.04345e-009 -1.29285e-011 -5.15073e-010 7.73091 5.47488 0.417314 1.04345e-009 -1.29292e-011 -5.15061e-010 2.90554 0.965183 0.102902 1.04345e-009 -1.29278e-011 -5.15061e-010 10.2786 0.731801 0.0259123 1.04345e-009 -1.29263e-011 -5.15051e-010 2.22167 -0.733487 -0.20892 -7.67052e-014 1.21177e-012 -7.94995e-014 -34.926 56.1637 -50.2919 20.4023 -15.0511 -36.3964 0.22752 -15.1699 2.17102 3.2734e-010 2.08249e-009 -1.19004e-009 5.84701e-010 3.61886e-009 -2.05322e-009 3.2734e-010 2.08249e-009 -1.19003e-009 -7.73091 5.47488 -0.417314 3.27342e-010 2.08249e-009 -1.19004e-009 -2.90554 0.965183 -0.102902 3.27333e-010 2.08249e-009 -1.19004e-009 -10.2786 0.731801 -0.0259123 3.27346e-010 2.08249e-009 -1.19005e-009 -2.22167 -0.733487 0.20892 -2.03217e-016 0 -3.88251e-019 -1.06933 -35.3445 5.36106 -0.263655 36.5136 0.541284 -1.57011 -10.0976 -3.03153 2.03217e-016 0 3.88251e-019 16.5254 -26.3576 12.113 0.0788407 30.5448 -0.603649 1.44602 -5.63236 5.67436 
52.1282 81.5637 -52.4919 -12.0457 -1.81598 103.262 -1.18268 14.9766 3.59297 2.22005 -4.92549 1.03062 -4.99336 -1.28505 9.0664 8.86554 -17.1565 21.0786 -0 0 0 -0 0 0 -9.06151e-014 1.26259e-012 -6.02815e-014 63.4076 46.8561 24.2428 -27.3686 -27.6573 63.5194 -11.8038 -65.746 -18.1757 1.23406e-009 -1.09666e-011 -5.77961e-010 2.15315e-009 2.9048e-011 -9.30897e-010 1.23407e-009 -1.09646e-011 -5.77977e-010 7.73091 5.47488 0.417314 1.23406e-009 -1.09654e-011 -5.77964e-010 2.90554 0.965183 0.102902 1.23407e-009 -1.0964e-011 -5.77963e-010 10.2786 0.731801 0.0259123 1.23406e-009 -1.09626e-011 -5.77951e-010 2.22167 -0.733487 -0.20892 -9.06824e-014 1.26258e-012 -6.05299e-014 -23.4504 57.8941 -76.3628 22.431 -16.4183 -44.9708 0.428127 -18.2787 2.66071 4.62939e-010 2.60469e-009 -1.45211e-009 8.22908e-010 4.52625e-009 -2.50578e-009 4.6294e-010 2.60469e-009 -1.4521e-009 -7.73091 5.47488 -0.417314 4.62941e-010 2.60469e-009 -1.4521e-009 -2.90554 0.965183 -0.102902 4.62932e-010 2.60468e-009 -1.45211e-009 -10.2786 0.731801 -0.0259123 4.62945e-010 2.60469e-009 -1.45211e-009 -2.22167 -0.733487 0.20892 -2.03217e-016 0 -3.88251e-019 -0.171957 -42.5247 7.16611 -0.473766 44.9679 0.773253 -2.00562 -13.1839 -3.73516 2.03217e-016 0 3.88251e-019 21.6589 -30.3993 15.2578 0.172602 35.9 -0.764325 1.81159 -6.92095 6.96686 
